<svg width="512" height="512" viewBox="0 0 64 64" fill="none" xmlns="http://www.w3.org/2000/svg">
  <defs>
    <linearGradient id="bubble" x1="8" y1="4" x2="56" y2="52" gradientUnits="userSpaceOnUse">
      <stop offset="0" stop-color="#3B82F6"/>
      <stop offset="0.55" stop-color="#6D4AE3"/>
      <stop offset="1" stop-color="#4C2FBF"/>
    </linearGradient>
    <linearGradient id="spark" x1="26" y1="18" x2="44" y2="42" gradientUnits="userSpaceOnUse">
      <stop offset="0" stop-color="#FCD34D"/>
      <stop offset="1" stop-color="#F59E0B"/>
    </linearGradient>
    <linearGradient id="ring" x1="4" y1="2" x2="60" y2="58" gradientUnits="userSpaceOnUse">
      <stop offset="0" stop-color="#60A5FA"/>
      <stop offset="1" stop-color="#7C3AED"/>
    </linearGradient>
    <linearGradient id="sheen" x1="20" y1="12" x2="48" y2="44" gradientUnits="userSpaceOnUse">
      <stop offset="0" stop-color="#fff"/>
      <stop offset="1" stop-color="#fff" stop-opacity="0"/>
    </linearGradient>
  </defs>
  <circle cx="32" cy="30" r="27.5" stroke="url(#ring)" stroke-width="2.5"/>
  <path d="M32 13c-11.6 0-21 7.6-21 17 0 5.2 2.9 9.9 7.4 13l-2.2 7.1c-.3 1 .8 1.9 1.7 1.3l7.9-4.9c2 .5 4 .7 6.2.7 11.6 0 21-7.6 21-17S43.6 13 32 13Z" fill="url(#bubble)"/>
  <path d="M32 13c-11.6 0-21 7.6-21 17 0 5.2 2.9 9.9 7.4 13l-2.2 7.1c-.3 1 .8 1.9 1.7 1.3l7.9-4.9c2 .5 4 .7 6.2.7 11.6 0 21-7.6 21-17S43.6 13 32 13Z" fill="url(#sheen)" opacity="0.18"/>
  <path d="M33 19.5c.5 3.6 2.6 6.4 6.1 7.6.9.3.9 1.6 0 1.9-3.5 1.2-5.6 4-6.1 7.6-.1.9-1.5.9-1.6 0-.5-3.6-2.6-6.4-6.1-7.6-.9-.3-.9-1.6 0-1.9 3.5-1.2 5.6-4 6.1-7.6.1-.9 1.5-.9 1.6 0Z" fill="url(#spark)"/>
  <path d="M42.6 32.4c.3 1.9 1.3 3.4 3.1 4 .5.2.5.9 0 1.1-1.8.6-2.8 2.1-3.1 4-.1.5-.8.5-.9 0-.3-1.9-1.3-3.4-3.1-4-.5-.2-.5-.9 0-1.1 1.8-.6 2.8-2.1 3.1-4 .1-.5.8-.5.9 0Z" fill="url(#spark)" opacity="0.85"/>
  <circle cx="22.5" cy="31" r="2" fill="#fff" opacity="0.95"/>
  <circle cx="16.5" cy="31" r="2" fill="#fff" opacity="0.7"/>
</svg>
