<svg xmlns="http://www.w3.org/2000/svg" width="1600" height="900" viewBox="0 0 1600 900" fill="none">
  <defs>
    <linearGradient id="bg" x1="0" y1="0" x2="1600" y2="900" gradientUnits="userSpaceOnUse">
      <stop stop-color="#DFE9F6"/>
      <stop offset="0.52" stop-color="#CFDBEC"/>
      <stop offset="1" stop-color="#C3D1E6"/>
    </linearGradient>
    <radialGradient id="violetGlow" cx="0" cy="0" r="1" gradientUnits="userSpaceOnUse" gradientTransform="translate(380 190) rotate(34.1) scale(620 320)">
      <stop stop-color="#7C3AED" stop-opacity="0.2"/>
      <stop offset="1" stop-color="#7C3AED" stop-opacity="0"/>
    </radialGradient>
    <radialGradient id="amberGlow" cx="0" cy="0" r="1" gradientUnits="userSpaceOnUse" gradientTransform="translate(1290 210) rotate(150.1) scale(440 250)">
      <stop stop-color="#F59E0B" stop-opacity="0.16"/>
      <stop offset="1" stop-color="#F59E0B" stop-opacity="0"/>
    </radialGradient>
    <pattern id="grid" width="48" height="48" patternUnits="userSpaceOnUse">
      <path d="M48 0H0V48" stroke="#6366F1" stroke-opacity="0.11" stroke-width="1"/>
    </pattern>
  </defs>
  <rect width="1600" height="900" fill="url(#bg)"/>
  <rect width="1600" height="900" fill="url(#violetGlow)"/>
  <rect width="1600" height="900" fill="url(#amberGlow)"/>
  <rect width="1600" height="900" fill="url(#grid)"/>

  <g stroke="#7C3AED" stroke-opacity="0.22" stroke-width="1.3" fill="none">
    <path d="M-120 640C102 560 242 740 430 650C630 554 805 705 980 620C1152 536 1329 688 1718 538"/>
    <path d="M-90 710C148 628 298 808 500 718C693 633 874 790 1036 708C1218 616 1410 765 1735 620"/>
    <path d="M-160 560C86 488 260 636 436 558C636 470 786 620 972 544C1160 467 1326 602 1710 444"/>
  </g>

  <g stroke="#0284C7" stroke-opacity="0.2" stroke-width="1.1" fill="none">
    <path d="M-30 360C198 286 338 478 544 390C724 312 914 468 1100 384C1282 302 1454 422 1660 334"/>
    <path d="M-52 284C172 214 334 370 530 300C716 236 888 362 1088 294C1270 230 1468 340 1668 266"/>
  </g>

  <g opacity="0.36">
    <circle cx="208" cy="188" r="2" fill="#64748B"/>
    <circle cx="420" cy="146" r="1.5" fill="#F59E0B"/>
    <circle cx="840" cy="118" r="1.5" fill="#64748B"/>
    <circle cx="1268" cy="176" r="2" fill="#8B5CF6"/>
    <circle cx="1428" cy="116" r="1.5" fill="#64748B"/>
  </g>
</svg>
